<?xml version="1.0" standalone="no"?>
<!DOCTYPE svg PUBLIC "-//W3C//DTD SVG 20010904//EN"
 "http://www.w3.org/TR/2001/REC-SVG-20010904/DTD/svg10.dtd">
<svg version="1.0" xmlns="http://www.w3.org/2000/svg"
 width="260.000000pt" height="260.000000pt" viewBox="0 0 260.000000 260.000000"
 preserveAspectRatio="xMidYMid meet">
<metadata>
Created by potrace 1.14, written by Peter Selinger 2001-2017
</metadata>
<g transform="translate(0.000000,260.000000) scale(0.100000,-0.100000)"
fill="#000000" stroke="none">
<path d="M1085 2483 c-44 -6 -165 -42 -202 -59 -17 -8 -38 -14 -47 -14 -8 0
-38 -13 -66 -30 -28 -16 -54 -30 -58 -30 -38 0 -332 -236 -332 -266 0 -7 -6
-17 -13 -21 -51 -32 -191 -269 -221 -373 -10 -36 -28 -92 -39 -125 -20 -54
-22 -80 -22 -265 0 -185 2 -211 22 -265 11 -33 29 -89 39 -125 30 -104 170
-341 221 -373 7 -4 13 -14 13 -20 0 -23 121 -129 249 -218 49 -34 193 -109
210 -109 7 0 27 -6 44 -14 18 -8 66 -25 107 -38 68 -21 94 -23 290 -23 234 0
272 6 429 66 150 57 229 103 344 198 103 84 277 283 277 316 0 4 15 33 34 64
18 31 39 74 46 96 7 22 16 45 20 50 4 6 18 51 31 100 22 81 24 110 24 295 0
185 -2 214 -24 295 -13 50 -27 95 -31 100 -4 6 -13 28 -20 50 -7 22 -28 65
-46 96 -19 31 -34 60 -34 64 0 33 -174 232 -277 316 -113 94 -194 141 -338
196 -154 59 -187 65 -400 68 -110 2 -213 1 -230 -2z m375 -153 c30 -4 64 -10
75 -14 194 -56 178 -50 300 -116 133 -73 311 -245 366 -354 15 -28 34 -58 43
-65 9 -7 16 -20 16 -27 0 -8 4 -22 10 -32 28 -48 71 -197 81 -277 14 -108 5
-329 -15 -400 -22 -74 -60 -176 -80 -210 -9 -16 -30 -53 -46 -82 -62 -113
-258 -304 -370 -361 -25 -13 -63 -33 -85 -46 -22 -12 -62 -28 -90 -35 -27 -6
-64 -18 -80 -26 -97 -44 -482 -45 -578 -1 -17 8 -54 20 -82 27 -27 7 -66 20
-85 31 -122 66 -152 85 -217 139 -39 32 -76 59 -82 59 -6 0 -11 5 -11 11 0 7
-29 44 -64 83 -35 39 -74 91 -87 115 -126 231 -157 359 -146 611 6 122 21 208
47 265 17 35 40 109 40 127 0 10 9 22 20 28 10 6 28 30 39 55 26 59 137 184
234 265 68 57 108 83 232 148 16 9 66 26 110 39 100 30 97 29 115 36 36 15
303 20 390 7z"/>
<path d="M606 1653 c-46 -13 -101 -112 -90 -162 20 -85 91 -131 175 -112 43
10 88 51 89 81 0 8 5 22 10 30 8 13 11 13 23 0 27 -29 58 -126 55 -171 l-3
-44 -235 -5 c-129 -3 -243 -9 -252 -13 -22 -11 -48 -68 -48 -105 0 -57 27
-100 81 -131 72 -41 156 -55 241 -41 74 11 95 19 148 53 60 37 81 60 106 115
l23 53 43 -3 43 -3 3 -102 3 -103 44 0 45 0 0 336 0 335 -42 -3 -43 -3 -5
-190 -5 -190 -35 0 -35 0 -6 70 c-8 106 -35 179 -83 225 -22 22 -46 40 -52 40
-6 0 -23 9 -38 21 -27 21 -119 34 -160 22z m117 -91 c22 -20 22 -39 -3 -80
-19 -31 -24 -33 -67 -30 -44 3 -48 5 -57 36 -22 78 64 129 127 74z m112 -372
c4 -6 -21 -37 -54 -70 -69 -68 -92 -75 -209 -68 -66 4 -84 9 -124 37 -51 34
-58 53 -32 89 15 21 20 22 214 22 125 0 201 -4 205 -10z"/>
<path d="M1370 1640 c-27 -27 -35 -65 -20 -101 33 -78 120 -50 120 39 0 32
-37 82 -61 82 -10 0 -28 -9 -39 -20z m60 -59 c0 -29 -14 -42 -37 -34 -14 5
-18 45 -6 56 3 4 15 7 25 7 13 0 18 -8 18 -29z"/>
<path d="M1810 1556 l0 -104 -29 -10 c-16 -6 -35 -21 -42 -34 -7 -13 -19 -28
-28 -34 -11 -9 -15 -30 -15 -82 0 -65 3 -75 37 -125 33 -47 45 -57 92 -71 57
-18 126 -15 156 7 30 22 50 79 60 165 5 48 9 93 9 100 0 20 49 14 68 -9 9 -12
23 -27 30 -34 17 -19 15 -86 -3 -123 -10 -20 -28 -35 -50 -42 -31 -10 -35 -16
-35 -46 0 -38 2 -39 66 -23 58 15 91 57 105 135 13 68 2 117 -37 175 -21 31
-34 39 -85 50 l-59 13 0 56 c0 45 4 58 21 68 14 9 19 21 17 40 l-3 27 -137 3
-138 3 0 -105z m163 25 c4 -1 7 -27 5 -58 l-3 -58 -45 0 -45 0 -3 49 c-2 27
-1 54 1 60 4 10 42 12 90 7z m3 -214 c8 -26 -6 -137 -22 -168 -7 -14 -27 -32
-45 -39 -27 -11 -36 -11 -58 1 -55 31 -80 139 -42 188 30 39 156 53 167 18z"/>
<path d="M1197 1262 c-26 -28 -22 -94 6 -120 28 -27 37 -27 76 -4 34 19 47 56
32 95 -18 47 -83 63 -114 29z m69 -46 c7 -31 -1 -46 -27 -46 -15 0 -19 7 -19
35 0 28 4 35 20 35 12 0 22 -9 26 -24z"/>
<path d="M1515 1267 c-11 -7 -21 -12 -22 -12 0 0 -4 -17 -8 -37 -6 -34 -4 -40
26 -68 40 -36 58 -38 87 -7 28 30 30 97 4 120 -21 20 -58 21 -87 4z m65 -62
c0 -28 -4 -35 -19 -35 -26 0 -34 15 -27 46 4 15 14 24 26 24 16 0 20 -7 20
-35z"/>
</g>
</svg>
