<svg version="1.0" xmlns="http://www.w3.org/2000/svg" xmlns:xlink="http://www.w3.org/1999/xlink" 
	 width="100%"
	 height="100%"
	 viewBox="0 0 100 66.385" 
	 >
<path 
  d="M21.117,3.593c0,0-2.713-4.171-4.833-3.525c-2.333,0.71-1.137,5.351-1.137,5.351c-4.348,0.754-6.248,7.257-14.025,7.775
	c-2.854,0.19-0.239,7.377,7.543,8.941c10.818,2.175,18.603,7.619,19.69,11.021c0.651,2.038,6.502,22.364,4.017,26.057
	c0,0-4.677,1.088-2.448,5.443c0.586,1.146,10.262,0.785,10.852-1.378c0.233-0.857,2.553-8.252,2.553-8.252
	c2.104,2.418,2.031,5.195,0.319,7.213c-1.397,1.646,1.72,4.905,6.135,3.477c5.298-1.714,5.565-16.115,5.565-21.814
	c0,0,9.972,3.696,20.335,1.877c0,0,1.292,12.526,0.705,13.335c-0.607,0.837-4.277,2.695-1.861,5.675
	c1.661,2.049,6.268,1.562,7.709,0.28c3.077-2.736,6.441-15.158,6.441-15.158s3.025,9.582,2.511,10.094
	c-3.21,3.188-1.162,6.312,2.101,6.312c0,0,5.479,0.927,6.712-4.01c0,0-1.389-25.691-0.437-30.987
	c2.23-12.41-23.119-18.168-26.654-18.509c-6.048-0.584-20.316-0.616-22.051-1.197c-1.59-0.533-5.487-2.761-8.175-3.272
	c-2.176-0.414-5.349,0.502-7.098,0.202c-1.994-0.342-7.55-2.912-7.55-2.912s0.271-3.868-2.288-4.555
	C24.033,0.615,21.117,3.593,21.117,3.593z"
	fill="blue" 
	/>
</svg>
