<?xml version="1.0" encoding="utf-8"?>
<svg version="1.1" id="Layer_1" xmlns="https://www.w3.org/2000/svg" xmlns:xlink="https://www.w3.org/1999/xlink" xml:space="preserve" style="display: none;">
<symbol viewBox="0 0 5 5.7" id="cart" xmlns="https://www.w3.org/2000/svg">
	<g>
		<path d="M3.8,4.6c0,0.1,0,0.2,0.1,0.3C4,4.9,4.1,5,4.2,5c0.1,0,0.2,0,0.3-0.1c0.1-0.1,0.1-0.2,0.1-0.3s0-0.2-0.1-0.3
		C4.4,4.2,4.3,4.2,4.2,4.2C4.1,4.2,4,4.2,4,4.3C3.9,4.4,3.8,4.5,3.8,4.6z"/>
		<path d="M4.9,1.2c0,0-0.1-0.1-0.1-0.1H1.2c0,0,0,0,0-0.1c0,0,0-0.1,0-0.1c0,0,0,0,0-0.1c0,0,0-0.1,0-0.1c0,0,0,0-0.1,0
		c0,0-0.1,0-0.1,0H0.2c-0.1,0-0.1,0-0.1,0.1C0,0.8,0,0.9,0,0.9S0,1,0.1,1c0,0,0.1,0.1,0.1,0.1h0.6l0.5,2.5c0,0,0,0-0.1,0.1
		c0,0.1-0.1,0.1-0.1,0.2c0,0.1,0,0.1,0,0.1c0,0.1,0,0.1,0.1,0.1c0,0,0.1,0.1,0.1,0.1h0.2h2.7h0.2c0.1,0,0.1,0,0.1-0.1
		c0,0,0.1-0.1,0.1-0.1c0-0.1,0-0.1-0.1-0.1c0,0-0.1-0.1-0.1-0.1H1.7c0-0.1,0.1-0.2,0.1-0.2c0,0,0,0,0-0.1c0,0,0-0.1,0-0.1
		c0,0,0-0.1,0-0.1L4.8,3C4.9,3,4.9,3,5,3c0,0,0-0.1,0-0.1V1.3C5,1.2,5,1.2,4.9,1.2z"/>
		<path d="M1.2,4.6c0,0.1,0,0.2,0.1,0.3C1.3,4.9,1.4,5,1.5,5c0.1,0,0.2,0,0.3-0.1c0.1-0.1,0.1-0.2,0.1-0.3s0-0.2-0.1-0.3
		C1.7,4.2,1.6,4.2,1.5,4.2c-0.1,0-0.2,0-0.3,0.1C1.2,4.4,1.2,4.5,1.2,4.6z"/>
	</g>
</symbol>
 <symbol viewBox="0 0 5 5.7" id="cartRed" xmlns="https://www.w3.org/2000/svg">
	<g>
		<path d="M3.8,4.6c0,0.1,0,0.2,0.1,0.3C4,4.9,4.1,5,4.2,5c0.1,0,0.2,0,0.3-0.1c0.1-0.1,0.1-0.2,0.1-0.3s0-0.2-0.1-0.3
		C4.4,4.2,4.3,4.2,4.2,4.2C4.1,4.2,4,4.2,4,4.3C3.9,4.4,3.8,4.5,3.8,4.6z" fill="#9c2023" />
		<path d="M4.9,1.2c0,0-0.1-0.1-0.1-0.1H1.2c0,0,0,0,0-0.1c0,0,0-0.1,0-0.1c0,0,0,0,0-0.1c0,0,0-0.1,0-0.1c0,0,0,0-0.1,0
		c0,0-0.1,0-0.1,0H0.2c-0.1,0-0.1,0-0.1,0.1C0,0.8,0,0.9,0,0.9S0,1,0.1,1c0,0,0.1,0.1,0.1,0.1h0.6l0.5,2.5c0,0,0,0-0.1,0.1
		c0,0.1-0.1,0.1-0.1,0.2c0,0.1,0,0.1,0,0.1c0,0.1,0,0.1,0.1,0.1c0,0,0.1,0.1,0.1,0.1h0.2h2.7h0.2c0.1,0,0.1,0,0.1-0.1
		c0,0,0.1-0.1,0.1-0.1c0-0.1,0-0.1-0.1-0.1c0,0-0.1-0.1-0.1-0.1H1.7c0-0.1,0.1-0.2,0.1-0.2c0,0,0,0,0-0.1c0,0,0-0.1,0-0.1
		c0,0,0-0.1,0-0.1L4.8,3C4.9,3,4.9,3,5,3c0,0,0-0.1,0-0.1V1.3C5,1.2,5,1.2,4.9,1.2z" fill="#9c2023" />
		<path d="M1.2,4.6c0,0.1,0,0.2,0.1,0.3C1.3,4.9,1.4,5,1.5,5c0.1,0,0.2,0,0.3-0.1c0.1-0.1,0.1-0.2,0.1-0.3s0-0.2-0.1-0.3
		C1.7,4.2,1.6,4.2,1.5,4.2c-0.1,0-0.2,0-0.3,0.1C1.2,4.4,1.2,4.5,1.2,4.6z" fill="#9c2023" />
	</g>
</symbol>
<symbol viewBox="0 0 5 5.7" id="search" xmlns="https://www.w3.org/2000/svg">
	<g>
		<path d="M5,5.1L3.7,3.9C4.1,3.5,4.3,3,4.3,2.5c0-1.2-1-2.1-2.1-2.1C1,0.3,0,1.3,0,2.5s1,2.1,2.1,2.1c0.5,0,1-0.2,1.4-0.5l1.2,1.2
		c0,0,0.1,0,0.1,0c0,0,0.1,0,0.1,0C5,5.2,5,5.1,5,5.1z M0.3,2.5c0-1,0.8-1.8,1.8-1.8c1,0,1.8,0.8,1.8,1.8S3.1,4.3,2.1,4.3
		C1.1,4.3,0.3,3.5,0.3,2.5z" fill="#FFFFFF" />
  </g>
</symbol>
<symbol viewBox="0 0 5 5.7" id="useraccount" xmlns="https://www.w3.org/2000/svg">
	<g>
		<path d="M2.2,2.9c0.8,0,1.1-0.8,1.2-1.5C3.4,0.6,3,0,2.2,0C1.3,0,0.9,0.6,1,1.4C1.1,2.1,1.4,2.9,2.2,2.9z"/>
		<path d="M3.9,3.2C3.9,3.2,4,3.2,3.9,3.2c0-0.1,0-0.1-0.1-0.1C3.7,3,3.5,2.9,3.3,2.8c-0.1,0-0.2-0.1-0.2-0.1C2.8,3,2.5,3.1,2.2,3.1
			C1.8,3.1,1.5,3,1.2,2.7C1.2,2.8,1.1,2.8,1,2.8C0.8,2.9,0.6,3,0.5,3.1C0.2,3.3,0.1,3.7,0.1,4C0,4.3,0,4.5,0,4.8C0,5,0.1,5,0.3,5.1
			c0.2,0.1,0.4,0.1,0.6,0.2c0.4,0.1,0.8,0.2,1.3,0.2c0.2,0,0.4,0,0.6,0C2.6,5.1,2.5,4.9,2.5,4.6C2.5,3.8,3.2,3.2,3.9,3.2z"/>
		<path d="M3.9,3.5C3.3,3.5,2.8,4,2.8,4.6s0.5,1.1,1.1,1.1S5,5.2,5,4.6C5,4,4.5,3.5,3.9,3.5z M4.4,4.8H4.1v0.3
			c0,0.1-0.1,0.2-0.2,0.2c-0.1,0-0.2-0.1-0.2-0.2V4.8H3.4c-0.1,0-0.2-0.1-0.2-0.2c0-0.1,0.1-0.2,0.2-0.2h0.3V4.1
			c0-0.1,0.1-0.2,0.2-0.2C4,3.9,4.1,4,4.1,4.1v0.3h0.3c0.1,0,0.2,0.1,0.2,0.2C4.6,4.7,4.5,4.8,4.4,4.8z"/>
	</g>
</symbol>
  <symbol viewBox="0 0 5 5.7" id="useraccountWhite" xmlns="https://www.w3.org/2000/svg">
	<g>
		<path d="M2.2,2.9c0.8,0,1.1-0.8,1.2-1.5C3.4,0.6,3,0,2.2,0C1.3,0,0.9,0.6,1,1.4C1.1,2.1,1.4,2.9,2.2,2.9z" fill="#FFFFFF" />
		<path d="M3.9,3.2C3.9,3.2,4,3.2,3.9,3.2c0-0.1,0-0.1-0.1-0.1C3.7,3,3.5,2.9,3.3,2.8c-0.1,0-0.2-0.1-0.2-0.1C2.8,3,2.5,3.1,2.2,3.1
			C1.8,3.1,1.5,3,1.2,2.7C1.2,2.8,1.1,2.8,1,2.8C0.8,2.9,0.6,3,0.5,3.1C0.2,3.3,0.1,3.7,0.1,4C0,4.3,0,4.5,0,4.8C0,5,0.1,5,0.3,5.1
			c0.2,0.1,0.4,0.1,0.6,0.2c0.4,0.1,0.8,0.2,1.3,0.2c0.2,0,0.4,0,0.6,0C2.6,5.1,2.5,4.9,2.5,4.6C2.5,3.8,3.2,3.2,3.9,3.2z" fill="#FFFFFF" />
		<path d="M3.9,3.5C3.3,3.5,2.8,4,2.8,4.6s0.5,1.1,1.1,1.1S5,5.2,5,4.6C5,4,4.5,3.5,3.9,3.5z M4.4,4.8H4.1v0.3
			c0,0.1-0.1,0.2-0.2,0.2c-0.1,0-0.2-0.1-0.2-0.2V4.8H3.4c-0.1,0-0.2-0.1-0.2-0.2c0-0.1,0.1-0.2,0.2-0.2h0.3V4.1
			c0-0.1,0.1-0.2,0.2-0.2C4,3.9,4.1,4,4.1,4.1v0.3h0.3c0.1,0,0.2,0.1,0.2,0.2C4.6,4.7,4.5,4.8,4.4,4.8z" fill="#FFFFFF" />
	</g>
</symbol>
  <symbol viewBox="0 0 612 612" id="adminaccount" xmlns="https://www.w3.org/2000/svg">
	<g>
		<path d="M306.001,325.988c90.563-0.005,123.147-90.682,131.679-165.167C448.188,69.06,404.799,0,306.001,0
			c-98.782,0-142.195,69.055-131.679,160.82C182.862,235.304,215.436,325.995,306.001,325.988z"/>
		<path d="M550.981,541.908c-0.99-28.904-4.377-57.939-9.421-86.393c-6.111-34.469-13.889-85.002-43.983-107.465
			c-17.404-12.988-39.941-17.249-59.865-25.081c-9.697-3.81-18.384-7.594-26.537-11.901c-27.518,30.176-63.4,45.962-105.186,45.964
			c-41.774,0-77.652-15.786-105.167-45.964c-8.153,4.308-16.84,8.093-26.537,11.901c-19.924,7.832-42.461,12.092-59.863,25.081
			c-30.096,22.463-37.873,72.996-43.983,107.465c-5.045,28.454-8.433,57.489-9.422,86.393
			c-0.766,22.387,10.288,25.525,29.017,32.284c23.453,8.458,47.666,14.737,72.041,19.884c47.077,9.941,95.603,17.582,143.921,17.924
			c48.318-0.343,96.844-7.983,143.921-17.924c24.375-5.145,48.59-11.424,72.041-19.884
			C540.694,567.435,551.747,564.297,550.981,541.908z"/>
	</g>
</symbol>
  <symbol viewBox="0 0 612 612" id="adminaccountWhite" xmlns="https://www.w3.org/2000/svg">
	<g>
    <path d="M306.001,325.988c90.563-0.005,123.147-90.682,131.679-165.167C448.188,69.06,404.799,0,306.001,0
			c-98.782,0-142.195,69.055-131.679,160.82C182.862,235.304,215.436,325.995,306.001,325.988z" fill="#FFFFFF" />
		<path d="M550.981,541.908c-0.99-28.904-4.377-57.939-9.421-86.393c-6.111-34.469-13.889-85.002-43.983-107.465
			c-17.404-12.988-39.941-17.249-59.865-25.081c-9.697-3.81-18.384-7.594-26.537-11.901c-27.518,30.176-63.4,45.962-105.186,45.964
			c-41.774,0-77.652-15.786-105.167-45.964c-8.153,4.308-16.84,8.093-26.537,11.901c-19.924,7.832-42.461,12.092-59.863,25.081
			c-30.096,22.463-37.873,72.996-43.983,107.465c-5.045,28.454-8.433,57.489-9.422,86.393
			c-0.766,22.387,10.288,25.525,29.017,32.284c23.453,8.458,47.666,14.737,72.041,19.884c47.077,9.941,95.603,17.582,143.921,17.924
			c48.318-0.343,96.844-7.983,143.921-17.924c24.375-5.145,48.59-11.424,72.041-19.884
			C540.694,567.435,551.747,564.297,550.981,541.908z" fill="#FFFFFF" />
    
    
	</g>
</symbol>
</svg>
