<svg xmlns="http://www.w3.org/2000/svg" width="299" height="32" viewBox="0 0 298.333 29.334"><path d="M23.305 5.204L19.45 23.146h-5.2L9.82 12.72h-.05L7.542 23.146H2.33L6.184 5.204h5.2l4.418 10.45h.05l2.25-10.45h5.214zm17.14 0l-.82 3.855H30.52l-.6 2.852h8.774l-.808 3.634h-8.762l-.758 3.512h9.876l-.88 4.1H21.955l3.83-17.94h14.66zm25.654 0l-8.444 17.94h-5.434l-.428-11.003h-.05L46.62 23.146h-5.544L40.6 5.204h4.993l-.256 10.953.06.05 4.957-11.002h5.384l.257 11.076h.05l4.613-11.076H66.1zm14.33 4.98l-5.2.28c-.114-1.558-.982-2.337-2.606-2.337-.66 0-1.17.14-1.523.42s-.533.62-.533 1.013c0 .285.143.554.43.812s.963.587 2.032.986c1.354.522 2.456 1.016 3.304 1.48s1.542 1.07 2.08 1.812.808 1.668.808 2.778c0 1.045-.292 2.016-.875 2.917s-1.424 1.644-2.52 2.228-2.658.877-4.68.877c-2.847 0-4.867-.547-6.058-1.64s-1.8-2.496-1.8-4.21v-.416l5.213-.354c0 1.118.247 1.904.74 2.366s1.176.693 2.05.693c.88 0 1.552-.192 2.013-.575s.7-.82.7-1.3c0-.367-.147-.706-.44-1.016s-1.016-.673-2.166-1.1c-2.636-.945-4.302-1.82-5-2.618s-1.046-1.762-1.046-2.9a4.9 4.9 0 0 1 .863-2.814c.575-.85 1.412-1.5 2.5-1.98s2.413-.7 3.947-.7c4.853 0 7.435 1.762 7.745 5.287zm2.88-4.98h8.15c1.533 0 2.692.18 3.47.543s1.37.9 1.778 1.614.612 1.592.612 2.627c0 1.348-.363 2.542-1.093 3.6s-1.648 1.803-2.754 2.26-2.64.686-4.597.686h-2.46l-1.395 6.62h-5.59L83.3 5.202zm3.892 7.772h1.873c.873 0 1.6-.257 2.15-.77s.836-1.126.836-1.836c0-1.077-.583-1.615-1.75-1.615h-2.178l-.93 4.222zm24.228 10.17h-5.434l-.245-2.938H99.9l-1.396 2.938h-5.972l10.133-17.94h5.9l2.853 17.94zm-6.033-6.745l-.55-6.534h-.048l-3.084 6.534h3.683zM116.04 5.204h8.15c1.534 0 2.688.18 3.468.543a3.88 3.88 0 0 1 1.783 1.614c.408.714.612 1.592.612 2.627 0 1.348-.367 2.542-1.098 3.6s-1.647 1.803-2.753 2.26-2.635.686-4.593.686h-2.46l-1.395 6.62h-5.593l3.88-17.942zm3.9 7.772h1.873c.873 0 1.586-.257 2.146-.77s.84-1.126.84-1.836c0-1.077-.583-1.615-1.75-1.615h-2.178l-.93 4.222zm27.6-7.772l-.82 3.855h-9.105l-.6 2.852h8.774l-.807 3.634H136.2l-.76 3.512h9.876l-.882 4.1H129.03l3.83-17.94h14.66zm2.188 0h10.207c1.762 0 3.05.46 3.867 1.383s1.224 2.03 1.224 3.33c0 1.403-.433 2.627-1.297 3.675s-2.248 1.722-4.148 2.015c1.125.915 2.472 3.428 4.038 7.54h-5.862l-1.73-4.256c-.665-1.538-1.165-2.426-1.5-2.672s-.738-.366-1.212-.366H153l-1.53 7.294h-5.568l3.806-17.942zm4.014 7.294h1.053c1.762 0 2.902-.082 3.42-.245s.903-.44 1.156-.828.38-.758.38-1.117c0-.458-.15-.815-.453-1.077s-.958-.392-1.97-.392h-2.814l-.772 3.66z" fill="#231f20"/><path d="M181.606 23.146h-5.434l-.245-2.938h-5.85l-1.396 2.938h-5.972l10.133-17.94h5.9l2.853 17.94zm-6.033-6.745l-.55-6.534h-.05L171.9 16.4h3.684zM186.2 5.204h10.207c1.762 0 3.05.46 3.867 1.383s1.224 2.03 1.224 3.33c0 1.403-.432 2.627-1.297 3.675s-2.248 1.722-4.148 2.015c1.126.915 2.472 3.428 4.04 7.54h-5.862L192.5 18.9c-.665-1.538-1.165-2.426-1.5-2.672s-.738-.366-1.2-.366h-.294l-1.53 7.294h-5.568l3.805-17.942zm4.014 7.294h1.052c1.762 0 2.903-.082 3.42-.245s.903-.44 1.156-.828.38-.758.38-1.117c0-.458-.15-.815-.452-1.077s-.96-.392-1.97-.392h-2.815l-.77 3.66zM219.18 11.1l-5.1.574v-.098c0-.872-.26-1.52-.783-1.945s-1.098-.636-1.726-.636c-.816 0-1.6.297-2.387.897s-1.398 1.517-1.868 2.75-.702 2.432-.702 3.598c0 .9.24 1.632.723 2.23s1.183.9 2.104.9c.85 0 1.563-.27 2.146-.8s1.097-1.365 1.537-2.482l5.2.807c-.538 1.853-1.583 3.4-3.13 4.675s-3.558 1.897-6.037 1.897c-2.587 0-4.564-.7-5.932-2.068s-2.048-3.214-2.048-5.507c0-1.755.404-3.517 1.216-5.287s2-3.16 3.557-4.173 3.428-1.518 5.605-1.518c2.26 0 4.043.567 5.352 1.7s2.07 2.632 2.274 4.493zm20.065-5.886l-3.855 17.94h-5.567l1.554-7.294h-6l-1.53 7.294h-5.617l3.855-17.94h5.568l-1.358 6.34h5.996l1.407-6.34h5.556zm8.305 0l-3.843 17.94H238.1l3.843-17.94h5.617zm20.296 0l-10.07 17.94h-5.997l-3.45-17.94h5.508l1.603 12.776h.05l6.352-12.776h6.007zm15.208 0l-.82 3.855h-9.104l-.6 2.852h8.774l-.808 3.634h-8.763l-.76 3.512h9.876l-.88 4.1h-15.407l3.83-17.94h14.662zm8.04-.33c1.514 0 2.8.54 3.9 1.618a5.3 5.3 0 0 1 1.618 3.89c0 1.503-.54 2.795-1.618 3.874s-2.375 1.618-3.9 1.618-2.8-.54-3.9-1.618-1.618-2.37-1.618-3.874a5.34 5.34 0 0 1 1.618-3.9 5.3 5.3 0 0 1 3.889-1.618zm0 9.933a4.28 4.28 0 0 0 3.136-1.3 4.24 4.24 0 0 0 1.305-3.124c0-1.222-.437-2.268-1.305-3.136a4.27 4.27 0 0 0-3.136-1.305c-1.222 0-2.267.435-3.14 1.305s-1.3 1.914-1.3 3.136a4.25 4.25 0 0 0 1.309 3.124c.874.867 1.92 1.3 3.14 1.3zm2.58-1.485h-1.724l-1.1-1.967c-.205-.245-.4-.37-.615-.37-.084 0-.14.004-.174.016v2.32H288.6V7.426h2.624c1.416 0 2.126.557 2.126 1.673 0 .868-.53 1.4-1.594 1.622v.028c.444.134.8.444 1.046.93l.874 1.643zm-3.612-3.403h.636c.764 0 1.145-.244 1.145-.733s-.363-.736-1.088-.736h-.692v1.47z" fill="#9b1c20"/></svg>