<?xml version="1.0" standalone="no"?>
<!DOCTYPE svg PUBLIC "-//W3C//DTD SVG 20010904//EN"
 "http://www.w3.org/TR/2001/REC-SVG-20010904/DTD/svg10.dtd">
<svg version="1.0" xmlns="http://www.w3.org/2000/svg"
 width="192.000000pt" height="192.000000pt" viewBox="0 0 192.000000 192.000000"
 preserveAspectRatio="xMidYMid meet">
<metadata>
Created by potrace 1.14, written by Peter Selinger 2001-2017
</metadata>
<g transform="translate(0.000000,192.000000) scale(0.100000,-0.100000)"
fill="#000000" stroke="none">
<path d="M690 1806 c-103 -35 -254 -108 -267 -129 -4 -7 -26 -26 -47 -42 -100
-75 -219 -244 -269 -380 -62 -171 -62 -419 0 -590 49 -136 169 -304 269 -380
21 -16 46 -37 54 -46 24 -27 166 -95 268 -128 89 -29 101 -31 255 -31 l162 0
111 39 c120 42 204 85 274 140 63 50 162 154 191 202 13 22 35 57 48 77 13 20
41 87 62 149 l39 111 0 162 0 162 -39 111 c-21 62 -49 129 -62 149 -13 20 -35
55 -48 77 -29 48 -128 152 -191 202 -70 55 -154 98 -274 140 l-111 39 -165 -1
c-159 0 -169 -1 -260 -33z m501 -117 c46 -17 93 -33 104 -37 11 -3 24 -9 30
-14 21 -17 86 -58 93 -58 4 0 20 -13 35 -29 15 -17 36 -33 47 -36 11 -4 20
-11 20 -16 0 -6 22 -36 49 -67 139 -162 194 -370 160 -609 -14 -102 -90 -264
-159 -344 -28 -32 -50 -62 -50 -68 0 -6 -6 -11 -13 -11 -8 0 -27 -13 -43 -30
-16 -16 -34 -30 -40 -30 -6 0 -17 -7 -25 -16 -17 -20 -130 -77 -211 -106 -56
-20 -82 -22 -233 -22 -151 0 -177 2 -233 22 -81 29 -194 86 -211 106 -8 9 -17
16 -22 16 -5 0 -17 8 -27 18 -10 10 -27 25 -38 33 -83 61 -196 244 -230 374
-28 103 -25 293 5 400 12 44 26 84 32 90 5 5 9 19 9 32 0 13 4 23 10 23 5 0
17 15 26 33 22 41 129 167 162 189 14 9 29 24 34 32 5 9 14 16 20 16 6 0 19 6
27 14 27 24 134 75 212 101 65 21 92 24 225 25 145 0 155 -1 235 -31z"/>
<path d="M416 1214 c-44 -43 -50 -136 -11 -178 20 -21 33 -26 74 -26 42 0 55
5 81 30 16 16 30 35 30 42 1 22 29 -36 30 -59 0 -13 5 -23 10 -23 16 0 11 -47
-6 -54 -9 -3 -89 -6 -179 -6 -156 0 -165 -1 -185 -22 -14 -15 -20 -35 -20 -64
0 -43 17 -94 31 -94 4 0 15 -8 25 -17 15 -15 37 -18 144 -18 116 0 127 2 149
22 14 13 32 25 41 28 9 3 22 17 28 30 7 14 17 36 24 50 8 18 19 25 40 25 l28
0 0 -80 0 -80 35 0 35 0 0 255 0 255 -35 0 -35 0 0 -145 0 -145 -25 0 c-23 0
-25 3 -25 52 0 32 -10 79 -25 119 -22 55 -32 69 -58 80 -18 7 -35 17 -39 23
-4 6 -38 12 -76 14 -56 3 -72 1 -86 -14z m84 -53 c0 -5 9 -11 20 -14 17 -4 18
-9 9 -36 -6 -17 -15 -31 -19 -31 -5 0 -15 -2 -23 -6 -8 -3 -21 6 -31 21 -16
24 -16 27 1 50 18 24 43 34 43 16z m90 -309 c-12 -16 -35 -37 -53 -47 -64 -38
-217 -14 -230 36 -3 12 0 19 9 19 8 0 14 5 14 10 0 6 53 10 140 10 l141 0 -21
-28z"/>
<path d="M994 1216 c-3 -7 -4 -35 -2 -62 3 -48 4 -49 38 -52 40 -4 60 16 60
61 0 47 -16 67 -56 67 -20 0 -37 -6 -40 -14z m56 -51 c0 -8 -4 -15 -9 -15 -13
0 -22 16 -14 24 11 11 23 6 23 -9z"/>
<path d="M1330 1155 c0 -65 -3 -76 -21 -85 -50 -27 -59 -46 -59 -122 1 -65 4
-77 28 -105 15 -17 40 -37 55 -42 36 -14 103 -14 127 -1 30 16 52 70 57 143 6
71 16 82 47 48 33 -36 20 -117 -20 -127 -19 -5 -24 -12 -24 -40 0 -26 4 -34
19 -34 78 0 126 64 119 160 -6 81 -48 130 -113 130 -23 0 -25 4 -25 45 0 25 5
45 10 45 6 0 10 14 10 30 l0 30 -105 0 -105 0 0 -75z m120 -30 c0 -41 -2 -45
-25 -45 -23 0 -25 4 -25 45 0 41 2 45 25 45 23 0 25 -4 25 -45z m-2 -174 c-2
-39 -6 -73 -10 -76 -3 -3 -21 -8 -41 -12 -32 -5 -37 -2 -51 25 -9 17 -16 47
-16 67 0 31 4 38 33 50 17 8 45 14 61 15 l28 0 -4 -69z"/>
<path d="M872 938 c-16 -16 -15 -79 2 -100 17 -23 60 -23 86 -1 27 24 28 88 1
103 -26 14 -74 13 -89 -2z m45 -60 c-3 -8 -6 -5 -6 6 -1 11 2 17 5 13 3 -3 4
-12 1 -19z"/>
<path d="M1108 939 c-12 -7 -18 -22 -18 -47 0 -45 26 -72 70 -72 34 0 43 21
38 86 -3 37 -5 39 -38 41 -19 2 -43 -2 -52 -8z m52 -54 c0 -8 -4 -15 -10 -15
-5 0 -10 7 -10 15 0 8 5 15 10 15 6 0 10 -7 10 -15z"/>
<path d="M280 660 l0 -30 675 0 675 0 0 30 0 30 -675 0 -675 0 0 -30z"/>
</g>
</svg>
